<?xml version="1.0" encoding="UTF-8"?>
<?xml-stylesheet href="https://cdnjs.cloudflare.com/ajax/libs/font-awesome/6.7.2/css/all.min.css" type="text/css"?>
<svg aria-roledescription="sequence" role="graphics-document document" style="overflow: hidden; max-width: 100%;" xmlns="http://www.w3.org/2000/svg" width="100%" id="graph-5" height="100%" xmlns:xlink="http://www.w3.org/1999/xlink" xmlns:ev="http://www.w3.org/2001/xml-events"><defs><symbol height="24" width="24" id="computer"><path d="M2 2v13h20v-13h-20zm18 11h-16v-9h16v9zm-10.228 6l.466-1h3.524l.467 1h-4.457zm14.228 3h-24l2-6h2.104l-1.33 4h18.45l-1.297-4h2.073l2 6zm-5-10h-14v-7h14v7z" transform="scale(.5)"></path></symbol></defs><defs><symbol clip-rule="evenodd" fill-rule="evenodd" id="database"><path d="M12.258.001l.256.004.255.005.253.008.251.01.249.012.247.015.246.016.242.019.241.02.239.023.236.024.233.027.231.028.229.031.225.032.223.034.22.036.217.038.214.04.211.041.208.043.205.045.201.046.198.048.194.05.191.051.187.053.183.054.18.056.175.057.172.059.168.06.163.061.16.063.155.064.15.066.074.033.073.033.071.034.07.034.069.035.068.035.067.035.066.035.064.036.064.036.062.036.06.036.06.037.058.037.058.037.055.038.055.038.053.038.052.038.051.039.05.039.048.039.047.039.045.04.044.04.043.04.041.04.04.041.039.041.037.041.036.041.034.041.033.042.032.042.03.042.029.042.027.042.026.043.024.043.023.043.021.043.02.043.018.044.017.043.015.044.013.044.012.044.011.045.009.044.007.045.006.045.004.045.002.045.001.045v17l-.001.045-.002.045-.004.045-.006.045-.007.045-.009.044-.011.045-.012.044-.013.044-.015.044-.017.043-.018.044-.02.043-.021.043-.023.043-.024.043-.026.043-.027.042-.029.042-.03.042-.032.042-.033.042-.034.041-.036.041-.037.041-.039.041-.04.041-.041.04-.043.04-.044.04-.045.04-.047.039-.048.039-.05.039-.051.039-.052.038-.053.038-.055.038-.055.038-.058.037-.058.037-.06.037-.06.036-.062.036-.064.036-.064.036-.066.035-.067.035-.068.035-.069.035-.07.034-.071.034-.073.033-.074.033-.15.066-.155.064-.16.063-.163.061-.168.06-.172.059-.175.057-.18.056-.183.054-.187.053-.191.051-.194.05-.198.048-.201.046-.205.045-.208.043-.211.041-.214.04-.217.038-.22.036-.223.034-.225.032-.229.031-.231.028-.233.027-.236.024-.239.023-.241.02-.242.019-.246.016-.247.015-.249.012-.251.01-.253.008-.255.005-.256.004-.258.001-.258-.001-.256-.004-.255-.005-.253-.008-.251-.01-.249-.012-.247-.015-.245-.016-.243-.019-.241-.02-.238-.023-.236-.024-.234-.027-.231-.028-.228-.031-.226-.032-.223-.034-.22-.036-.217-.038-.214-.04-.211-.041-.208-.043-.204-.045-.201-.046-.198-.048-.195-.05-.19-.051-.187-.053-.184-.054-.179-.056-.176-.057-.172-.059-.167-.06-.164-.061-.159-.063-.155-.064-.151-.066-.074-.033-.072-.033-.072-.034-.07-.034-.069-.035-.068-.035-.067-.035-.066-.035-.064-.036-.063-.036-.062-.036-.061-.036-.06-.037-.058-.037-.057-.037-.056-.038-.055-.038-.053-.038-.052-.038-.051-.039-.049-.039-.049-.039-.046-.039-.046-.04-.044-.04-.043-.04-.041-.04-.04-.041-.039-.041-.037-.041-.036-.041-.034-.041-.033-.042-.032-.042-.03-.042-.029-.042-.027-.042-.026-.043-.024-.043-.023-.043-.021-.043-.02-.043-.018-.044-.017-.043-.015-.044-.013-.044-.012-.044-.011-.045-.009-.044-.007-.045-.006-.045-.004-.045-.002-.045-.001-.045v-17l.001-.045.002-.045.004-.045.006-.045.007-.045.009-.044.011-.045.012-.044.013-.044.015-.044.017-.043.018-.044.02-.043.021-.043.023-.043.024-.043.026-.043.027-.042.029-.042.03-.042.032-.042.033-.042.034-.041.036-.041.037-.041.039-.041.04-.041.041-.04.043-.04.044-.04.046-.04.046-.039.049-.039.049-.039.051-.039.052-.038.053-.038.055-.038.056-.038.057-.037.058-.037.06-.037.061-.036.062-.036.063-.036.064-.036.066-.035.067-.035.068-.035.069-.035.07-.034.072-.034.072-.033.074-.033.151-.066.155-.064.159-.063.164-.061.167-.06.172-.059.176-.057.179-.056.184-.054.187-.053.19-.051.195-.05.198-.048.201-.046.204-.045.208-.043.211-.041.214-.04.217-.038.22-.036.223-.034.226-.032.228-.031.231-.028.234-.027.236-.024.238-.023.241-.02.243-.019.245-.016.247-.015.249-.012.251-.01.253-.008.255-.005.256-.004.258-.001.258.001zm-9.258 20.499v.01l.001.021.003.021.004.022.005.021.006.022.007.022.009.023.01.022.011.023.012.023.013.023.015.023.016.024.017.023.018.024.019.024.021.024.022.025.023.024.024.025.052.049.056.05.061.051.066.051.07.051.075.051.079.052.084.052.088.052.092.052.097.052.102.051.105.052.11.052.114.051.119.051.123.051.127.05.131.05.135.05.139.048.144.049.147.047.152.047.155.047.16.045.163.045.167.043.171.043.176.041.178.041.183.039.187.039.19.037.194.035.197.035.202.033.204.031.209.03.212.029.216.027.219.025.222.024.226.021.23.02.233.018.236.016.24.015.243.012.246.01.249.008.253.005.256.004.259.001.26-.001.257-.004.254-.005.25-.008.247-.011.244-.012.241-.014.237-.016.233-.018.231-.021.226-.021.224-.024.22-.026.216-.027.212-.028.21-.031.205-.031.202-.034.198-.034.194-.036.191-.037.187-.039.183-.04.179-.04.175-.042.172-.043.168-.044.163-.045.16-.046.155-.046.152-.047.148-.048.143-.049.139-.049.136-.05.131-.05.126-.05.123-.051.118-.052.114-.051.11-.052.106-.052.101-.052.096-.052.092-.052.088-.053.083-.051.079-.052.074-.052.07-.051.065-.051.06-.051.056-.05.051-.05.023-.024.023-.025.021-.024.02-.024.019-.024.018-.024.017-.024.015-.023.014-.024.013-.023.012-.023.01-.023.01-.022.008-.022.006-.022.006-.022.004-.022.004-.021.001-.021.001-.021v-4.127l-.077.055-.08.053-.083.054-.085.053-.087.052-.09.052-.093.051-.095.05-.097.05-.1.049-.102.049-.105.048-.106.047-.109.047-.111.046-.114.045-.115.045-.118.044-.12.043-.122.042-.124.042-.126.041-.128.04-.13.04-.132.038-.134.038-.135.037-.138.037-.139.035-.142.035-.143.034-.144.033-.147.032-.148.031-.15.03-.151.03-.153.029-.154.027-.156.027-.158.026-.159.025-.161.024-.162.023-.163.022-.165.021-.166.02-.167.019-.169.018-.169.017-.171.016-.173.015-.173.014-.175.013-.175.012-.177.011-.178.01-.179.008-.179.008-.181.006-.182.005-.182.004-.184.003-.184.002h-.37l-.184-.002-.184-.003-.182-.004-.182-.005-.181-.006-.179-.008-.179-.008-.178-.01-.176-.011-.176-.012-.175-.013-.173-.014-.172-.015-.171-.016-.17-.017-.169-.018-.167-.019-.166-.02-.165-.021-.163-.022-.162-.023-.161-.024-.159-.025-.157-.026-.156-.027-.155-.027-.153-.029-.151-.03-.15-.03-.148-.031-.146-.032-.145-.033-.143-.034-.141-.035-.14-.035-.137-.037-.136-.037-.134-.038-.132-.038-.13-.04-.128-.04-.126-.041-.124-.042-.122-.042-.12-.044-.117-.043-.116-.045-.113-.045-.112-.046-.109-.047-.106-.047-.105-.048-.102-.049-.1-.049-.097-.05-.095-.05-.093-.052-.09-.051-.087-.052-.085-.053-.083-.054-.08-.054-.077-.054v4.127zm0-5.654v.011l.001.021.003.021.004.021.005.022.006.022.007.022.009.022.01.022.011.023.012.023.013.023.015.024.016.023.017.024.018.024.019.024.021.024.022.024.023.025.024.024.052.05.056.05.061.05.066.051.07.051.075.052.079.051.084.052.088.052.092.052.097.052.102.052.105.052.11.051.114.051.119.052.123.05.127.051.131.05.135.049.139.049.144.048.147.048.152.047.155.046.16.045.163.045.167.044.171.042.176.042.178.04.183.04.187.038.19.037.194.036.197.034.202.033.204.032.209.03.212.028.216.027.219.025.222.024.226.022.23.02.233.018.236.016.24.014.243.012.246.01.249.008.253.006.256.003.259.001.26-.001.257-.003.254-.006.25-.008.247-.01.244-.012.241-.015.237-.016.233-.018.231-.02.226-.022.224-.024.22-.025.216-.027.212-.029.21-.03.205-.032.202-.033.198-.035.194-.036.191-.037.187-.039.183-.039.179-.041.175-.042.172-.043.168-.044.163-.045.16-.045.155-.047.152-.047.148-.048.143-.048.139-.05.136-.049.131-.05.126-.051.123-.051.118-.051.114-.052.11-.052.106-.052.101-.052.096-.052.092-.052.088-.052.083-.052.079-.052.074-.051.07-.052.065-.051.06-.05.056-.051.051-.049.023-.025.023-.024.021-.025.02-.024.019-.024.018-.024.017-.024.015-.023.014-.023.013-.024.012-.022.01-.023.01-.023.008-.022.006-.022.006-.022.004-.021.004-.022.001-.021.001-.021v-4.139l-.077.054-.08.054-.083.054-.085.052-.087.053-.09.051-.093.051-.095.051-.097.05-.1.049-.102.049-.105.048-.106.047-.109.047-.111.046-.114.045-.115.044-.118.044-.12.044-.122.042-.124.042-.126.041-.128.04-.13.039-.132.039-.134.038-.135.037-.138.036-.139.036-.142.035-.143.033-.144.033-.147.033-.148.031-.15.03-.151.03-.153.028-.154.028-.156.027-.158.026-.159.025-.161.024-.162.023-.163.022-.165.021-.166.02-.167.019-.169.018-.169.017-.171.016-.173.015-.173.014-.175.013-.175.012-.177.011-.178.009-.179.009-.179.007-.181.007-.182.005-.182.004-.184.003-.184.002h-.37l-.184-.002-.184-.003-.182-.004-.182-.005-.181-.007-.179-.007-.179-.009-.178-.009-.176-.011-.176-.012-.175-.013-.173-.014-.172-.015-.171-.016-.17-.017-.169-.018-.167-.019-.166-.02-.165-.021-.163-.022-.162-.023-.161-.024-.159-.025-.157-.026-.156-.027-.155-.028-.153-.028-.151-.03-.15-.03-.148-.031-.146-.033-.145-.033-.143-.033-.141-.035-.14-.036-.137-.036-.136-.037-.134-.038-.132-.039-.13-.039-.128-.04-.126-.041-.124-.042-.122-.043-.12-.043-.117-.044-.116-.044-.113-.046-.112-.046-.109-.046-.106-.047-.105-.048-.102-.049-.1-.049-.097-.05-.095-.051-.093-.051-.09-.051-.087-.053-.085-.052-.083-.054-.08-.054-.077-.054v4.139zm0-5.666v.011l.001.02.003.022.004.021.005.022.006.021.007.022.009.023.01.022.011.023.012.023.013.023.015.023.016.024.017.024.018.023.019.024.021.025.022.024.023.024.024.025.052.05.056.05.061.05.066.051.07.051.075.052.079.051.084.052.088.052.092.052.097.052.102.052.105.051.11.052.114.051.119.051.123.051.127.05.131.05.135.05.139.049.144.048.147.048.152.047.155.046.16.045.163.045.167.043.171.043.176.042.178.04.183.04.187.038.19.037.194.036.197.034.202.033.204.032.209.03.212.028.216.027.219.025.222.024.226.021.23.02.233.018.236.017.24.014.243.012.246.01.249.008.253.006.256.003.259.001.26-.001.257-.003.254-.006.25-.008.247-.01.244-.013.241-.014.237-.016.233-.018.231-.02.226-.022.224-.024.22-.025.216-.027.212-.029.21-.03.205-.032.202-.033.198-.035.194-.036.191-.037.187-.039.183-.039.179-.041.175-.042.172-.043.168-.044.163-.045.16-.045.155-.047.152-.047.148-.048.143-.049.139-.049.136-.049.131-.051.126-.05.123-.051.118-.052.114-.051.11-.052.106-.052.101-.052.096-.052.092-.052.088-.052.083-.052.079-.052.074-.052.07-.051.065-.051.06-.051.056-.05.051-.049.023-.025.023-.025.021-.024.02-.024.019-.024.018-.024.017-.024.015-.023.014-.024.013-.023.012-.023.01-.022.01-.023.008-.022.006-.022.006-.022.004-.022.004-.021.001-.021.001-.021v-4.153l-.077.054-.08.054-.083.053-.085.053-.087.053-.09.051-.093.051-.095.051-.097.05-.1.049-.102.048-.105.048-.106.048-.109.046-.111.046-.114.046-.115.044-.118.044-.12.043-.122.043-.124.042-.126.041-.128.04-.13.039-.132.039-.134.038-.135.037-.138.036-.139.036-.142.034-.143.034-.144.033-.147.032-.148.032-.15.03-.151.03-.153.028-.154.028-.156.027-.158.026-.159.024-.161.024-.162.023-.163.023-.165.021-.166.02-.167.019-.169.018-.169.017-.171.016-.173.015-.173.014-.175.013-.175.012-.177.01-.178.01-.179.009-.179.007-.181.006-.182.006-.182.004-.184.003-.184.001-.185.001-.185-.001-.184-.001-.184-.003-.182-.004-.182-.006-.181-.006-.179-.007-.179-.009-.178-.01-.176-.01-.176-.012-.175-.013-.173-.014-.172-.015-.171-.016-.17-.017-.169-.018-.167-.019-.166-.02-.165-.021-.163-.023-.162-.023-.161-.024-.159-.024-.157-.026-.156-.027-.155-.028-.153-.028-.151-.03-.15-.03-.148-.032-.146-.032-.145-.033-.143-.034-.141-.034-.14-.036-.137-.036-.136-.037-.134-.038-.132-.039-.13-.039-.128-.041-.126-.041-.124-.041-.122-.043-.12-.043-.117-.044-.116-.044-.113-.046-.112-.046-.109-.046-.106-.048-.105-.048-.102-.048-.1-.05-.097-.049-.095-.051-.093-.051-.09-.052-.087-.052-.085-.053-.083-.053-.08-.054-.077-.054v4.153zm8.74-8.179l-.257.004-.254.005-.25.008-.247.011-.244.012-.241.014-.237.016-.233.018-.231.021-.226.022-.224.023-.22.026-.216.027-.212.028-.21.031-.205.032-.202.033-.198.034-.194.036-.191.038-.187.038-.183.04-.179.041-.175.042-.172.043-.168.043-.163.045-.16.046-.155.046-.152.048-.148.048-.143.048-.139.049-.136.05-.131.05-.126.051-.123.051-.118.051-.114.052-.11.052-.106.052-.101.052-.096.052-.092.052-.088.052-.083.052-.079.052-.074.051-.07.052-.065.051-.06.05-.056.05-.051.05-.023.025-.023.024-.021.024-.02.025-.019.024-.018.024-.017.023-.015.024-.014.023-.013.023-.012.023-.01.023-.01.022-.008.022-.006.023-.006.021-.004.022-.004.021-.001.021-.001.021.001.021.001.021.004.021.004.022.006.021.006.023.008.022.01.022.01.023.012.023.013.023.014.023.015.024.017.023.018.024.019.024.02.025.021.024.023.024.023.025.051.05.056.05.06.05.065.051.07.052.074.051.079.052.083.052.088.052.092.052.096.052.101.052.106.052.11.052.114.052.118.051.123.051.126.051.131.05.136.05.139.049.143.048.148.048.152.048.155.046.16.046.163.045.168.043.172.043.175.042.179.041.183.04.187.038.191.038.194.036.198.034.202.033.205.032.21.031.212.028.216.027.22.026.224.023.226.022.231.021.233.018.237.016.241.014.244.012.247.011.25.008.254.005.257.004.26.001.26-.001.257-.004.254-.005.25-.008.247-.011.244-.012.241-.014.237-.016.233-.018.231-.021.226-.022.224-.023.22-.026.216-.027.212-.028.21-.031.205-.032.202-.033.198-.034.194-.036.191-.038.187-.038.183-.04.179-.041.175-.042.172-.043.168-.043.163-.045.16-.046.155-.046.152-.048.148-.048.143-.048.139-.049.136-.05.131-.05.126-.051.123-.051.118-.051.114-.052.11-.052.106-.052.101-.052.096-.052.092-.052.088-.052.083-.052.079-.052.074-.051.07-.052.065-.051.06-.05.056-.05.051-.05.023-.025.023-.024.021-.024.02-.025.019-.024.018-.024.017-.023.015-.024.014-.023.013-.023.012-.023.01-.023.01-.022.008-.022.006-.023.006-.021.004-.022.004-.021.001-.021.001-.021-.001-.021-.001-.021-.004-.021-.004-.022-.006-.021-.006-.023-.008-.022-.01-.022-.01-.023-.012-.023-.013-.023-.014-.023-.015-.024-.017-.023-.018-.024-.019-.024-.02-.025-.021-.024-.023-.024-.023-.025-.051-.05-.056-.05-.06-.05-.065-.051-.07-.052-.074-.051-.079-.052-.083-.052-.088-.052-.092-.052-.096-.052-.101-.052-.106-.052-.11-.052-.114-.052-.118-.051-.123-.051-.126-.051-.131-.05-.136-.05-.139-.049-.143-.048-.148-.048-.152-.048-.155-.046-.16-.046-.163-.045-.168-.043-.172-.043-.175-.042-.179-.041-.183-.04-.187-.038-.191-.038-.194-.036-.198-.034-.202-.033-.205-.032-.21-.031-.212-.028-.216-.027-.22-.026-.224-.023-.226-.022-.231-.021-.233-.018-.237-.016-.241-.014-.244-.012-.247-.011-.25-.008-.254-.005-.257-.004-.26-.001-.26.001z" transform="scale(.5)"></path></symbol></defs><defs><symbol height="24" width="24" id="clock"><path d="M12 2c5.514 0 10 4.486 10 10s-4.486 10-10 10-10-4.486-10-10 4.486-10 10-10zm0-2c-6.627 0-12 5.373-12 12s5.373 12 12 12 12-5.373 12-12-5.373-12-12-12zm5.848 12.459c.202.038.202.333.001.372-1.907.361-6.045 1.111-6.547 1.111-.719 0-1.301-.582-1.301-1.301 0-.512.77-5.447 1.125-7.445.034-.192.312-.181.343.014l.985 6.238 5.394 1.011z" transform="scale(.5)"></path></symbol></defs><defs><marker orient="auto-start-reverse" markerHeight="12" markerWidth="12" markerUnits="userSpaceOnUse" refY="5" refX="7.9" id="arrowhead"><path d="M -1 0 L 10 5 L 0 10 z"></path></marker></defs><defs><marker refY="4.5" refX="4" orient="auto" markerHeight="8" markerWidth="15" id="crosshead"><path d="M 1,2 L 6,7 M 6,2 L 1,7" stroke-width="1pt" style="stroke-dasharray: 0px, 0px;" stroke="#000000" fill="none"></path></marker></defs><defs><marker orient="auto" markerHeight="28" markerWidth="20" refY="7" refX="15.5" id="filled-head"><path d="M 18,7 L9,13 L14,7 L9,1 Z"></path></marker></defs><defs><marker orient="auto" markerHeight="40" markerWidth="60" refY="15" refX="15" id="sequencenumber"><circle r="6" cy="15" cx="15"></circle></marker></defs><g id="viewport-20250408074425412" class="svg-pan-zoom_viewport" transform="matrix(0.2897568643093109,0,0,0.2897568643093109,358.4974365234375,60.97145080566406)" style="transform: matrix(0.289757, 0, 0, 0.289757, 358.497, 60.9715);"><g><rect class="actor actor-bottom" ry="3" rx="3" name="Members" height="65" width="176" stroke="#666" fill="#eaeaea" y="2425" x="2393"></rect><text class="actor actor-box" alignment-baseline="central" dominant-baseline="central" style="text-anchor: middle; font-size: 16px; font-weight: 400;" y="2457.5" x="2481"><tspan dy="0" x="2481">Membres du Groupe</tspan></text></g><g><rect class="actor actor-bottom" ry="3" rx="3" name="MS" height="65" width="150" stroke="#666" fill="#eaeaea" y="2425" x="2170"></rect><text class="actor actor-box" alignment-baseline="central" dominant-baseline="central" style="text-anchor: middle; font-size: 16px; font-weight: 400;" y="2457.5" x="2245"><tspan dy="0" x="2245">media-service</tspan></text></g><g><rect class="actor actor-bottom" ry="3" rx="3" name="IS" height="65" width="151" stroke="#666" fill="#eaeaea" y="2425" x="1969"></rect><text class="actor actor-box" alignment-baseline="central" dominant-baseline="central" style="text-anchor: middle; font-size: 16px; font-weight: 400;" y="2457.5" x="2044.5"><tspan dy="0" x="2044.5">identity-service</tspan></text></g><g><rect class="actor actor-bottom" ry="3" rx="3" name="US" height="65" width="150" stroke="#666" fill="#eaeaea" y="2425" x="1769"></rect><text class="actor actor-box" alignment-baseline="central" dominant-baseline="central" style="text-anchor: middle; font-size: 16px; font-weight: 400;" y="2457.5" x="1844"><tspan dy="0" x="1844">user-service</tspan></text></g><g><rect class="actor actor-bottom" ry="3" rx="3" name="DS" height="65" width="151" stroke="#666" fill="#eaeaea" y="2425" x="1344.5"></rect><text class="actor actor-box" alignment-baseline="central" dominant-baseline="central" style="text-anchor: middle; font-size: 16px; font-weight: 400;" y="2457.5" x="1420"><tspan dy="0" x="1420">delivery-service</tspan></text></g><g><rect class="actor actor-bottom" ry="3" rx="3" name="API" height="65" width="150" stroke="#666" fill="#eaeaea" y="2425" x="955"></rect><text class="actor actor-box" alignment-baseline="central" dominant-baseline="central" style="text-anchor: middle; font-size: 16px; font-weight: 400;" y="2457.5" x="1030"><tspan dy="0" x="1030">API Gateway</tspan></text></g><g><rect class="actor actor-bottom" ry="3" rx="3" name="MobileApp" height="65" width="168" stroke="#666" fill="#eaeaea" y="2425" x="437"></rect><text class="actor actor-box" alignment-baseline="central" dominant-baseline="central" style="text-anchor: middle; font-size: 16px; font-weight: 400;" y="2457.5" x="521"><tspan dy="0" x="521">Application Mobile</tspan></text></g><g><rect class="actor actor-bottom" ry="3" rx="3" name="User" height="65" width="174" stroke="#666" fill="#eaeaea" y="2425" x="0"></rect><text class="actor actor-box" alignment-baseline="central" dominant-baseline="central" style="text-anchor: middle; font-size: 16px; font-weight: 400;" y="2457.5" x="87"><tspan dy="0" x="87">Créateur du Groupe</tspan></text></g><g><line name="Members" stroke="#999" stroke-width="0.5px" class="actor-line 200" y2="2425" x2="2481" y1="65" x1="2481" id="actor37"></line><g id="root-37"><rect class="actor actor-top" ry="3" rx="3" name="Members" height="65" width="176" stroke="#666" fill="#eaeaea" y="0" x="2393"></rect><text class="actor actor-box" alignment-baseline="central" dominant-baseline="central" style="text-anchor: middle; font-size: 16px; font-weight: 400;" y="32.5" x="2481"><tspan dy="0" x="2481">Membres du Groupe</tspan></text></g></g><g><line name="MS" stroke="#999" stroke-width="0.5px" class="actor-line 200" y2="2425" x2="2245" y1="65" x1="2245" id="actor36"></line><g id="root-36"><rect class="actor actor-top" ry="3" rx="3" name="MS" height="65" width="150" stroke="#666" fill="#eaeaea" y="0" x="2170"></rect><text class="actor actor-box" alignment-baseline="central" dominant-baseline="central" style="text-anchor: middle; font-size: 16px; font-weight: 400;" y="32.5" x="2245"><tspan dy="0" x="2245">media-service</tspan></text></g></g><g><line name="IS" stroke="#999" stroke-width="0.5px" class="actor-line 200" y2="2425" x2="2044.5" y1="65" x1="2044.5" id="actor35"></line><g id="root-35"><rect class="actor actor-top" ry="3" rx="3" name="IS" height="65" width="151" stroke="#666" fill="#eaeaea" y="0" x="1969"></rect><text class="actor actor-box" alignment-baseline="central" dominant-baseline="central" style="text-anchor: middle; font-size: 16px; font-weight: 400;" y="32.5" x="2044.5"><tspan dy="0" x="2044.5">identity-service</tspan></text></g></g><g><line name="US" stroke="#999" stroke-width="0.5px" class="actor-line 200" y2="2425" x2="1844" y1="65" x1="1844" id="actor34"></line><g id="root-34"><rect class="actor actor-top" ry="3" rx="3" name="US" height="65" width="150" stroke="#666" fill="#eaeaea" y="0" x="1769"></rect><text class="actor actor-box" alignment-baseline="central" dominant-baseline="central" style="text-anchor: middle; font-size: 16px; font-weight: 400;" y="32.5" x="1844"><tspan dy="0" x="1844">user-service</tspan></text></g></g><g><line name="DS" stroke="#999" stroke-width="0.5px" class="actor-line 200" y2="2425" x2="1420" y1="65" x1="1420" id="actor33"></line><g id="root-33"><rect class="actor actor-top" ry="3" rx="3" name="DS" height="65" width="151" stroke="#666" fill="#eaeaea" y="0" x="1344.5"></rect><text class="actor actor-box" alignment-baseline="central" dominant-baseline="central" style="text-anchor: middle; font-size: 16px; font-weight: 400;" y="32.5" x="1420"><tspan dy="0" x="1420">delivery-service</tspan></text></g></g><g><line name="API" stroke="#999" stroke-width="0.5px" class="actor-line 200" y2="2425" x2="1030" y1="65" x1="1030" id="actor32"></line><g id="root-32"><rect class="actor actor-top" ry="3" rx="3" name="API" height="65" width="150" stroke="#666" fill="#eaeaea" y="0" x="955"></rect><text class="actor actor-box" alignment-baseline="central" dominant-baseline="central" style="text-anchor: middle; font-size: 16px; font-weight: 400;" y="32.5" x="1030"><tspan dy="0" x="1030">API Gateway</tspan></text></g></g><g><line name="MobileApp" stroke="#999" stroke-width="0.5px" class="actor-line 200" y2="2425" x2="521" y1="65" x1="521" id="actor31"></line><g id="root-31"><rect class="actor actor-top" ry="3" rx="3" name="MobileApp" height="65" width="168" stroke="#666" fill="#eaeaea" y="0" x="437"></rect><text class="actor actor-box" alignment-baseline="central" dominant-baseline="central" style="text-anchor: middle; font-size: 16px; font-weight: 400;" y="32.5" x="521"><tspan dy="0" x="521">Application Mobile</tspan></text></g></g><g><line name="User" stroke="#999" stroke-width="0.5px" class="actor-line 200" y2="2425" x2="87" y1="65" x1="87" id="actor30"></line><g id="root-30"><rect class="actor actor-top" ry="3" rx="3" name="User" height="65" width="174" stroke="#666" fill="#eaeaea" y="0" x="0"></rect><text class="actor actor-box" alignment-baseline="central" dominant-baseline="central" style="text-anchor: middle; font-size: 16px; font-weight: 400;" y="32.5" x="87"><tspan dy="0" x="87">Créateur du Groupe</tspan></text></g></g><style>#graph-5{font-family:"trebuchet ms",verdana,arial,sans-serif;font-size:16px;fill:#333;}@keyframes edge-animation-frame{from{stroke-dashoffset:0;}}@keyframes dash{to{stroke-dashoffset:0;}}#graph-5 .edge-animation-slow{stroke-dasharray:9,5!important;stroke-dashoffset:900;animation:dash 50s linear infinite;stroke-linecap:round;}#graph-5 .edge-animation-fast{stroke-dasharray:9,5!important;stroke-dashoffset:900;animation:dash 20s linear infinite;stroke-linecap:round;}#graph-5 .error-icon{fill:#552222;}#graph-5 .error-text{fill:#552222;stroke:#552222;}#graph-5 .edge-thickness-normal{stroke-width:1px;}#graph-5 .edge-thickness-thick{stroke-width:3.5px;}#graph-5 .edge-pattern-solid{stroke-dasharray:0;}#graph-5 .edge-thickness-invisible{stroke-width:0;fill:none;}#graph-5 .edge-pattern-dashed{stroke-dasharray:3;}#graph-5 .edge-pattern-dotted{stroke-dasharray:2;}#graph-5 .marker{fill:#333333;stroke:#333333;}#graph-5 .marker.cross{stroke:#333333;}#graph-5 svg{font-family:"trebuchet ms",verdana,arial,sans-serif;font-size:16px;}#graph-5 p{margin:0;}#graph-5 .actor{stroke:hsl(259.6261682243, 59.7765363128%, 87.9019607843%);fill:#ECECFF;}#graph-5 text.actor&gt;tspan{fill:black;stroke:none;}#graph-5 .actor-line{stroke:hsl(259.6261682243, 59.7765363128%, 87.9019607843%);}#graph-5 .messageLine0{stroke-width:1.5;stroke-dasharray:none;stroke:#333;}#graph-5 .messageLine1{stroke-width:1.5;stroke-dasharray:2,2;stroke:#333;}#graph-5 #arrowhead path{fill:#333;stroke:#333;}#graph-5 .sequenceNumber{fill:white;}#graph-5 #sequencenumber{fill:#333;}#graph-5 #crosshead path{fill:#333;stroke:#333;}#graph-5 .messageText{fill:#333;stroke:none;}#graph-5 .labelBox{stroke:hsl(259.6261682243, 59.7765363128%, 87.9019607843%);fill:#ECECFF;}#graph-5 .labelText,#graph-5 .labelText&gt;tspan{fill:black;stroke:none;}#graph-5 .loopText,#graph-5 .loopText&gt;tspan{fill:black;stroke:none;}#graph-5 .loopLine{stroke-width:2px;stroke-dasharray:2,2;stroke:hsl(259.6261682243, 59.7765363128%, 87.9019607843%);fill:hsl(259.6261682243, 59.7765363128%, 87.9019607843%);}#graph-5 .note{stroke:#aaaa33;fill:#fff5ad;}#graph-5 .noteText,#graph-5 .noteText&gt;tspan{fill:black;stroke:none;}#graph-5 .activation0{fill:#f4f4f4;stroke:#666;}#graph-5 .activation1{fill:#f4f4f4;stroke:#666;}#graph-5 .activation2{fill:#f4f4f4;stroke:#666;}#graph-5 .actorPopupMenu{position:absolute;}#graph-5 .actorPopupMenuPanel{position:absolute;fill:#ECECFF;box-shadow:0px 8px 16px 0px rgba(0,0,0,0.2);filter:drop-shadow(3px 5px 2px rgb(0 0 0 / 0.4));}#graph-5 .actor-man line{stroke:hsl(259.6261682243, 59.7765363128%, 87.9019607843%);fill:#ECECFF;}#graph-5 .actor-man circle,#graph-5 line{stroke:hsl(259.6261682243, 59.7765363128%, 87.9019607843%);fill:#ECECFF;stroke-width:2px;}#graph-5 :root{--mermaid-font-family:"trebuchet ms",verdana,arial,sans-serif;}</style><g></g><g><rect class="note" height="39" width="296" stroke="#666" fill="#EDF2AE" y="355" x="373"></rect><text dy="1em" class="noteText" style="font-size: 16px; font-weight: 400;" alignment-baseline="middle" dominant-baseline="middle" text-anchor="middle" y="360" x="521"><tspan x="521">Création des clés de groupe Signal</tspan></text></g><g><line class="loopLine" y2="564" x2="2373.5" y1="564" x1="363.5"></line><line class="loopLine" y2="969" x2="2373.5" y1="564" x1="2373.5"></line><line class="loopLine" y2="969" x2="2373.5" y1="969" x1="363.5"></line><line class="loopLine" y2="969" x2="363.5" y1="564" x1="363.5"></line><polygon class="labelBox" points="363.5,564 413.5,564 413.5,577 405.1,584 363.5,584"></polygon><text class="labelText" style="font-size: 16px; font-weight: 400;" alignment-baseline="middle" dominant-baseline="middle" text-anchor="middle" y="577" x="389">alt</text><text class="loopText" style="font-size: 16px; font-weight: 400;" text-anchor="middle" y="582" x="1393.5"><tspan x="1393.5">[Photo de groupe fournie]</tspan></text></g><g><line class="loopLine" y2="1259" x2="2055.5" y1="1259" x1="1236"></line><line class="loopLine" y2="1514" x2="2055.5" y1="1259" x1="2055.5"></line><line class="loopLine" y2="1514" x2="2055.5" y1="1514" x1="1236"></line><line class="loopLine" y2="1514" x2="1236" y1="1259" x1="1236"></line><polygon class="labelBox" points="1236,1259 1286,1259 1286,1272 1277.6,1279 1236,1279"></polygon><text class="labelText" style="font-size: 16px; font-weight: 400;" alignment-baseline="middle" dominant-baseline="middle" text-anchor="middle" y="1272" x="1261">loop</text><text class="loopText" style="font-size: 16px; font-weight: 400;" text-anchor="middle" y="1277" x="1670.75"><tspan x="1670.75">[Pour chaque membre du groupe]</tspan></text></g><g><rect class="note" height="39" width="297" stroke="#666" fill="#EDF2AE" y="1624" x="372.5"></rect><text dy="1em" class="noteText" style="font-size: 16px; font-weight: 400;" alignment-baseline="middle" dominant-baseline="middle" text-anchor="middle" y="1629" x="521"><tspan x="521">Distribution des clés aux membres</tspan></text></g><g><line class="loopLine" y2="1673" x2="2492" y1="1673" x1="245"></line><line class="loopLine" y2="2028" x2="2492" y1="1673" x1="2492"></line><line class="loopLine" y2="2028" x2="2492" y1="2028" x1="245"></line><line class="loopLine" y2="2028" x2="245" y1="1673" x1="245"></line><polygon class="labelBox" points="245,1673 295,1673 295,1686 286.6,1693 245,1693"></polygon><text class="labelText" style="font-size: 16px; font-weight: 400;" alignment-baseline="middle" dominant-baseline="middle" text-anchor="middle" y="1686" x="270">loop</text><text class="loopText" style="font-size: 16px; font-weight: 400;" text-anchor="middle" y="1691" x="1393.5"><tspan x="1393.5">[Pour chaque membre du groupe]</tspan></text></g><g><rect class="note" height="77" width="2010" stroke="#666" fill="#EDF2AE" y="2328" x="496"></rect><text dy="1em" class="noteText" style="font-size: 16px; font-weight: 400;" alignment-baseline="middle" dominant-baseline="middle" text-anchor="middle" y="2333" x="1501"><tspan x="1501">La communication au sein du groupe utilise</tspan></text><text dy="1em" class="noteText" style="font-size: 16px; font-weight: 400;" alignment-baseline="middle" dominant-baseline="middle" text-anchor="middle" y="2352" x="1501"><tspan x="1501">le chiffrement de bout en bout avec</tspan></text><text dy="1em" class="noteText" style="font-size: 16px; font-weight: 400;" alignment-baseline="middle" dominant-baseline="middle" text-anchor="middle" y="2371" x="1501"><tspan x="1501">la clé de groupe, suivant le protocole Signal</tspan></text></g><text dy="1em" class="messageText" style="font-size: 16px; font-weight: 400;" alignment-baseline="middle" dominant-baseline="middle" text-anchor="middle" y="80" x="303">Demande de création d'un groupe</text><line marker-end="url(#arrowhead)" style="fill: none;" stroke="none" stroke-width="2" class="messageLine0" y2="115" x2="517" y1="115" x1="88"></line><text dy="1em" class="messageText" style="font-size: 16px; font-weight: 400;" alignment-baseline="middle" dominant-baseline="middle" text-anchor="middle" y="130" x="522">Interface de création (nom, photo, membres)</text><path marker-end="url(#arrowhead)" style="fill: none;" stroke="none" stroke-width="2" class="messageLine0" d="M 522,165 C 582,155 582,195 522,185"></path><text dy="1em" class="messageText" style="font-size: 16px; font-weight: 400;" alignment-baseline="middle" dominant-baseline="middle" text-anchor="middle" y="210" x="303">Sélectionne les contacts à ajouter</text><line marker-end="url(#arrowhead)" style="fill: none;" stroke="none" stroke-width="2" class="messageLine0" y2="245" x2="517" y1="245" x1="88"></line><text dy="1em" class="messageText" style="font-size: 16px; font-weight: 400;" alignment-baseline="middle" dominant-baseline="middle" text-anchor="middle" y="260" x="303">Configure nom et photo du groupe (optionnel)</text><line marker-end="url(#arrowhead)" style="fill: none;" stroke="none" stroke-width="2" class="messageLine0" y2="295" x2="517" y1="295" x1="88"></line><text dy="1em" class="messageText" style="font-size: 16px; font-weight: 400;" alignment-baseline="middle" dominant-baseline="middle" text-anchor="middle" y="310" x="303">Confirme la création</text><line marker-end="url(#arrowhead)" style="fill: none;" stroke="none" stroke-width="2" class="messageLine0" y2="345" x2="517" y1="345" x1="88"></line><text dy="1em" class="messageText" style="font-size: 16px; font-weight: 400;" alignment-baseline="middle" dominant-baseline="middle" text-anchor="middle" y="409" x="522">Génère l'identifiant de groupe</text><path marker-end="url(#arrowhead)" style="fill: none;" stroke="none" stroke-width="2" class="messageLine0" d="M 522,444 C 582,434 582,474 522,464"></path><text dy="1em" class="messageText" style="font-size: 16px; font-weight: 400;" alignment-baseline="middle" dominant-baseline="middle" text-anchor="middle" y="489" x="522">Génère la clé de groupe Signal</text><path marker-end="url(#arrowhead)" style="fill: none;" stroke="none" stroke-width="2" class="messageLine0" d="M 522,524 C 582,514 582,554 522,544"></path><text dy="1em" class="messageText" style="font-size: 16px; font-weight: 400;" alignment-baseline="middle" dominant-baseline="middle" text-anchor="middle" y="614" x="522">Chiffre la photo avec la clé de groupe</text><path marker-end="url(#arrowhead)" style="fill: none;" stroke="none" stroke-width="2" class="messageLine0" d="M 522,649 C 582,639 582,679 522,669"></path><text dy="1em" class="messageText" style="font-size: 16px; font-weight: 400;" alignment-baseline="middle" dominant-baseline="middle" text-anchor="middle" y="694" x="774">POST /api/v1/media/upload (photo chiffrée)</text><line marker-end="url(#arrowhead)" style="fill: none;" stroke="none" stroke-width="2" class="messageLine0" y2="729" x2="1026" y1="729" x1="522"></line><text dy="1em" class="messageText" style="font-size: 16px; font-weight: 400;" alignment-baseline="middle" dominant-baseline="middle" text-anchor="middle" y="744" x="1636">Transmission de la photo chiffrée</text><line marker-end="url(#arrowhead)" style="fill: none;" stroke="none" stroke-width="2" class="messageLine0" y2="779" x2="2241" y1="779" x1="1031"></line><text dy="1em" class="messageText" style="font-size: 16px; font-weight: 400;" alignment-baseline="middle" dominant-baseline="middle" text-anchor="middle" y="794" x="2246">Stockage de la photo chiffrée</text><path marker-end="url(#arrowhead)" style="fill: none;" stroke="none" stroke-width="2" class="messageLine0" d="M 2246,829 C 2306,819 2306,859 2246,849"></path><text dy="1em" class="messageText" style="font-size: 16px; font-weight: 400;" alignment-baseline="middle" dominant-baseline="middle" text-anchor="middle" y="874" x="1639">Retourne l'ID du média</text><line marker-end="url(#arrowhead)" stroke="none" stroke-width="2" class="messageLine1" style="stroke-dasharray: 3px, 3px; fill: none;" y2="909" x2="1034" y1="909" x1="2244"></line><text dy="1em" class="messageText" style="font-size: 16px; font-weight: 400;" alignment-baseline="middle" dominant-baseline="middle" text-anchor="middle" y="924" x="777">Transmission de l'ID média</text><line marker-end="url(#arrowhead)" stroke="none" stroke-width="2" class="messageLine1" style="stroke-dasharray: 3px, 3px; fill: none;" y2="959" x2="525" y1="959" x1="1029"></line><text dy="1em" class="messageText" style="font-size: 16px; font-weight: 400;" alignment-baseline="middle" dominant-baseline="middle" text-anchor="middle" y="984" x="774">POST /api/v1/groups (metadata chiffrée, IDs membres)</text><line marker-end="url(#arrowhead)" style="fill: none;" stroke="none" stroke-width="2" class="messageLine0" y2="1019" x2="1026" y1="1019" x1="522"></line><text dy="1em" class="messageText" style="font-size: 16px; font-weight: 400;" alignment-baseline="middle" dominant-baseline="middle" text-anchor="middle" y="1034" x="1224">Transmission de la requête de création</text><line marker-end="url(#arrowhead)" style="fill: none;" stroke="none" stroke-width="2" class="messageLine0" y2="1069" x2="1416" y1="1069" x1="1031"></line><text dy="1em" class="messageText" style="font-size: 16px; font-weight: 400;" alignment-baseline="middle" dominant-baseline="middle" text-anchor="middle" y="1084" x="1631">Vérification des droits d'accès aux membres</text><line marker-end="url(#arrowhead)" style="fill: none;" stroke="none" stroke-width="2" class="messageLine0" y2="1119" x2="1840" y1="1119" x1="1421"></line><text dy="1em" class="messageText" style="font-size: 16px; font-weight: 400;" alignment-baseline="middle" dominant-baseline="middle" text-anchor="middle" y="1134" x="1634">Confirmation des droits</text><line marker-end="url(#arrowhead)" stroke="none" stroke-width="2" class="messageLine1" style="stroke-dasharray: 3px, 3px; fill: none;" y2="1169" x2="1424" y1="1169" x1="1843"></line><text dy="1em" class="messageText" style="font-size: 16px; font-weight: 400;" alignment-baseline="middle" dominant-baseline="middle" text-anchor="middle" y="1184" x="1421">Création de l'entrée de groupe dans la base</text><path marker-end="url(#arrowhead)" style="fill: none;" stroke="none" stroke-width="2" class="messageLine0" d="M 1421,1219 C 1481,1209 1481,1249 1421,1239"></path><text dy="1em" class="messageText" style="font-size: 16px; font-weight: 400;" alignment-baseline="middle" dominant-baseline="middle" text-anchor="middle" y="1309" x="1731">Récupération des preKeys des membres</text><line marker-end="url(#arrowhead)" style="fill: none;" stroke="none" stroke-width="2" class="messageLine0" y2="1344" x2="2040.5" y1="1344" x1="1421"></line><text dy="1em" class="messageText" style="font-size: 16px; font-weight: 400;" alignment-baseline="middle" dominant-baseline="middle" text-anchor="middle" y="1359" x="1734">Liste des preKeys disponibles</text><line marker-end="url(#arrowhead)" stroke="none" stroke-width="2" class="messageLine1" style="stroke-dasharray: 3px, 3px; fill: none;" y2="1394" x2="1424" y1="1394" x1="2043.5"></line><text dy="1em" class="messageText" style="font-size: 16px; font-weight: 400;" alignment-baseline="middle" dominant-baseline="middle" text-anchor="middle" y="1409" x="1421">Stockage des associations membres-groupe</text><path marker-end="url(#arrowhead)" style="fill: none;" stroke="none" stroke-width="2" class="messageLine0" d="M 1421,1444 C 1481,1434 1481,1474 1421,1464"></path><text dy="1em" class="messageText" style="font-size: 16px; font-weight: 400;" alignment-baseline="middle" dominant-baseline="middle" text-anchor="middle" y="1529" x="1227">Confirmation de création + ID du groupe</text><line marker-end="url(#arrowhead)" stroke="none" stroke-width="2" class="messageLine1" style="stroke-dasharray: 3px, 3px; fill: none;" y2="1564" x2="1034" y1="1564" x1="1419"></line><text dy="1em" class="messageText" style="font-size: 16px; font-weight: 400;" alignment-baseline="middle" dominant-baseline="middle" text-anchor="middle" y="1579" x="777">Transmission de la confirmation</text><line marker-end="url(#arrowhead)" stroke="none" stroke-width="2" class="messageLine1" style="stroke-dasharray: 3px, 3px; fill: none;" y2="1614" x2="525" y1="1614" x1="1029"></line><text dy="1em" class="messageText" style="font-size: 16px; font-weight: 400;" alignment-baseline="middle" dominant-baseline="middle" text-anchor="middle" y="1723" x="522">Chiffre la clé de groupe pour chaque membre avec leur clé publique</text><path marker-end="url(#arrowhead)" style="fill: none;" stroke="none" stroke-width="2" class="messageLine0" d="M 522,1758 C 582,1748 582,1788 522,1778"></path><text dy="1em" class="messageText" style="font-size: 16px; font-weight: 400;" alignment-baseline="middle" dominant-baseline="middle" text-anchor="middle" y="1803" x="774">POST /api/v1/messages (clé de groupe chiffrée)</text><line marker-end="url(#arrowhead)" style="fill: none;" stroke="none" stroke-width="2" class="messageLine0" y2="1838" x2="1026" y1="1838" x1="522"></line><text dy="1em" class="messageText" style="font-size: 16px; font-weight: 400;" alignment-baseline="middle" dominant-baseline="middle" text-anchor="middle" y="1853" x="1224">Transmission du message chiffré</text><line marker-end="url(#arrowhead)" style="fill: none;" stroke="none" stroke-width="2" class="messageLine0" y2="1888" x2="1416" y1="1888" x1="1031"></line><text dy="1em" class="messageText" style="font-size: 16px; font-weight: 400;" alignment-baseline="middle" dominant-baseline="middle" text-anchor="middle" y="1903" x="1421">Stockage du message chiffré pour distribution</text><path marker-end="url(#arrowhead)" style="fill: none;" stroke="none" stroke-width="2" class="messageLine0" d="M 1421,1938 C 1481,1928 1481,1968 1421,1958"></path><text dy="1em" class="messageText" style="font-size: 16px; font-weight: 400;" alignment-baseline="middle" dominant-baseline="middle" text-anchor="middle" y="1983" x="1949">Notification de nouveau groupe (via push)</text><line marker-end="url(#arrowhead)" stroke="none" stroke-width="2" class="messageLine1" style="stroke-dasharray: 3px, 3px; fill: none;" y2="2018" x2="2477" y1="2018" x1="1421"></line><text dy="1em" class="messageText" style="font-size: 16px; font-weight: 400;" alignment-baseline="middle" dominant-baseline="middle" text-anchor="middle" y="2043" x="306">Affichage du groupe créé</text><line marker-end="url(#arrowhead)" stroke="none" stroke-width="2" class="messageLine1" style="stroke-dasharray: 3px, 3px; fill: none;" y2="2078" x2="91" y1="2078" x1="520"></line><text dy="1em" class="messageText" style="font-size: 16px; font-weight: 400;" alignment-baseline="middle" dominant-baseline="middle" text-anchor="middle" y="2093" x="2482">Réception de la notification</text><path marker-end="url(#arrowhead)" style="fill: none;" stroke="none" stroke-width="2" class="messageLine0" d="M 2482,2128 C 2542,2118 2542,2158 2482,2148"></path><text dy="1em" class="messageText" style="font-size: 16px; font-weight: 400;" alignment-baseline="middle" dominant-baseline="middle" text-anchor="middle" y="2173" x="2482">Déchiffrement de la clé de groupe avec clé privée</text><path marker-end="url(#arrowhead)" style="fill: none;" stroke="none" stroke-width="2" class="messageLine0" d="M 2482,2208 C 2542,2198 2542,2238 2482,2228"></path><text dy="1em" class="messageText" style="font-size: 16px; font-weight: 400;" alignment-baseline="middle" dominant-baseline="middle" text-anchor="middle" y="2253" x="2482">Accès aux messages et médias du groupe avec la clé déchiffrée</text><path marker-end="url(#arrowhead)" style="fill: none;" stroke="none" stroke-width="2" class="messageLine0" d="M 2482,2288 C 2542,2278 2542,2318 2482,2308"></path></g></svg>